<?xml version="1.0" encoding="UTF-8"?>
<svg width="200" height="200" viewBox="0 0 200 200" xmlns="http://www.w3.org/2000/svg">
  <defs></defs>
  <!-- Shield Icon -->
  <g transform="matrix(1.8,0,0,1.8,10,10)" fill="#ff5722">
    <title>Shield-9 Copy</title>
    <desc>Created with Sketch.</desc>
    <g stroke="none" stroke-width="1" fill="none" fill-rule="evenodd">
      <path d="M83.4468591,19.2915 C83.2908591,18.2445 82.4043591,17.46 81.3468591,17.4465 C76.9893591,17.3895 70.6473591,16.728 63.6363591,13.8975 C58.1973591,11.7015 54.0348591,8.8785 51.1083591,6.501 C50.6973591,6.1665 50.1963591,6 49.6953591,6 C49.1943591,6 48.6918591,6.1665 48.2823591,6.501 C45.3543591,8.8785 41.1918591,11.7015 35.7543591,13.8975 C28.7433591,16.728 22.3998591,17.3895 18.0438591,17.4465 C16.9848591,17.46 16.0983591,18.2445 15.9438591,19.2915 C14.5863591,28.482 12.0018591,56.8845 30.7713591,79.404 C36.3048591,86.043 42.4383591,90.663 47.8353591,93.8715 C48.4083591,94.212 49.0518591,94.383 49.6938591,94.383 C50.3373591,94.383 50.9793591,94.212 51.5523591,93.8715 C56.9508591,90.6645 63.0828591,86.0445 68.6163591,79.404 C87.3873591,56.8845 84.8043591,28.482 83.4468591,19.2915 L83.4468591,19.2915 L83.4468591,19.2915 L83.4468591,19.2915 Z M65.1603591,76.5225 C60.8523591,81.693 55.6503591,86.1375 49.6938591,89.739 C43.7358591,86.1345 38.5338591,81.69 34.2273591,76.5225 C18.2013591,57.2955 18.7548591,33.153 20.1348591,21.882 C26.0988591,21.5805 31.9113591,20.301 37.4388591,18.0705 C41.8113591,16.305 45.9258591,13.968 49.6953591,11.112 C53.4633591,13.968 57.5778591,16.305 61.9518591,18.0705 C67.4793591,20.301 73.2903591,21.5805 79.2558591,21.882 C80.6343591,33.153 81.1878591,57.2955 65.1603591,76.5225 L65.1603591,76.5225 Z M53.6217277,24 L38,49.6479063 L46.4041706,49.6479063 L44.6449353,69 L60.2666629,43.3525982 L51.8619878,43.3525982 L53.6217277,24 L53.6217277,24 Z" fill="#ff5722"></path>
    </g>
  </g>
</svg>